HIERARCHY
ROOT reference
{
  OFFSET 0 0 0
  CHANNELS 6 Xposition Yposition Zposition Zrotation Xrotation Yrotation
  JOINT Hips
  {
    OFFSET -88.9081 90.2011 104.008
    CHANNELS 6 Xposition Yposition Zposition Zrotation Xrotation Yrotation
    JOINT Spine
    {
      OFFSET 0 7.57377 0
      CHANNELS 6 Xposition Yposition Zposition Zrotation Xrotation Yrotation
      JOINT Spine1
      {
        OFFSET 0 21.6353 0
        CHANNELS 6 Xposition Yposition Zposition Zrotation Xrotation Yrotation
        JOINT Neck
        {
          OFFSET 0 21.5464 1.95876
          CHANNELS 6 Xposition Yposition Zposition Zrotation Xrotation Yrotation
          JOINT Head
          {
            OFFSET 0 12.9308 -1.84726
            CHANNELS 6 Xposition Yposition Zposition Zrotation Xrotation Yrotation
            End Site
            {
              OFFSET 0 23.0907 0
            }
          }
        }
        JOINT LeftShoulder
        {
          OFFSET 3.70822 19.5981 -0.368577
          CHANNELS 6 Xposition Yposition Zposition Zrotation Xrotation Yrotation
          JOINT LeftArm
          {
            OFFSET 11.1726 0 0
            CHANNELS 6 Xposition Yposition Zposition Zrotation Xrotation Yrotation
            JOINT LeftForeArm
            {
              OFFSET 28.6421 0 0
              CHANNELS 6 Xposition Yposition Zposition Zrotation Xrotation Yrotation
              JOINT LeftHand
              {
                OFFSET 23.9346 0 0
                CHANNELS 6 Xposition Yposition Zposition Zrotation Xrotation Yrotation
                End Site
                {
                  OFFSET 13.8545 0 0
                }
              }
            }
          }
        }
        JOINT RightShoulder
        {
          OFFSET -3.63664 19.5981 -0.368577
          CHANNELS 6 Xposition Yposition Zposition Zrotation Xrotation Yrotation
          JOINT RightArm
          {
            OFFSET -11.1726 0 0
            CHANNELS 6 Xposition Yposition Zposition Zrotation Xrotation Yrotation
            JOINT RightForeArm
            {
              OFFSET -28.6421 0 0
              CHANNELS 6 Xposition Yposition Zposition Zrotation Xrotation Yrotation
              JOINT RightHand
              {
                OFFSET -23.9346 0 0
                CHANNELS 6 Xposition Yposition Zposition Zrotation Xrotation Yrotation
                End Site
                {
                  OFFSET -13.8545 0 0
                }
              }
            }
          }
        }
      }
    }
    JOINT LeftUpLeg
    {
      OFFSET 9.2363 0 0
      CHANNELS 6 Xposition Yposition Zposition Zrotation Xrotation Yrotation
      JOINT LeftLeg
      {
        OFFSET 0 -40.7061 0
        CHANNELS 6 Xposition Yposition Zposition Zrotation Xrotation Yrotation
        JOINT LeftFoot
        {
          OFFSET 0 -40.9975 0
          CHANNELS 6 Xposition Yposition Zposition Zrotation Xrotation Yrotation
          JOINT LeftToeBase
          {
            OFFSET 0 -6.00359 13.8545
            CHANNELS 6 Xposition Yposition Zposition Zrotation Xrotation Yrotation
            End Site
            {
              OFFSET 0 0 3.69452
            }
          }
        }
      }
    }
    JOINT RightUpLeg
    {
      OFFSET -9.2363 0 0
      CHANNELS 6 Xposition Yposition Zposition Zrotation Xrotation Yrotation
      JOINT RightLeg
      {
        OFFSET 0 -40.7061 0
        CHANNELS 6 Xposition Yposition Zposition Zrotation Xrotation Yrotation
        JOINT RightFoot
        {
          OFFSET 0 -40.9975 0
          CHANNELS 6 Xposition Yposition Zposition Zrotation Xrotation Yrotation
          JOINT RightToeBase
          {
            OFFSET 0 -6.00359 13.8545
            CHANNELS 6 Xposition Yposition Zposition Zrotation Xrotation Yrotation
            End Site
            {
              OFFSET 0 0 3.69452
            }
          }
        }
      }
    }
  }
}
MOTION
Frames:	8
Frame Time:	0.004
0 0 0 0 0 -0 -33.5107 93.3285 -109.078 8.63728 1.96485 12.932 -3.55271e-015 7.57377 1.42109e-014 -2.41913 0.678991 12.3424 -3.55271e-015 21.6353 0 -3.55341 -0.239722 12.3205 -1.42109e-014 21.5464 1.95876 -28.031 16.9198 -2.56386 -7.10543e-015 12.9308 -1.84726 1.01821 5.0703 -2.74758 3.70822 19.5981 -0.368577 7.62133 16.5782 1.10144 11.1726 1.42109e-014 0 -57.853 -5.254 19.1986 28.6421 -2.84217e-014 0 13.1755 -17.0079 -13.4277 23.9346 0 1.42109e-014 33.1416 -16.4301 -3.20728 -3.63664 19.5981 -0.368577 -11.5829 -4.51884 2.81942 -11.1726 0 0 26.2509 25.6995 46.2543 -28.6421 1.42109e-014 0 -47.9954 -28.3735 39.7937 -23.9346 2.84217e-014 0 -35.2206 -11.4877 1.82824 9.2363 0 1.42109e-014 -3.76312 -42.5893 2.25508 3.55271e-015 -40.7061 0 0.272562 51.6055 18.1746 0 -40.9975 0 -3.57697 20.7875 -23.6027 0 -6.00359 13.8545 7.95139e-016 -3.18055e-015 -1.59028e-015 -9.2363 0 0 -9.89803 5.47795 -8.17639 0 -40.7061 0 3.67746 12.782 -1.06775 0 -40.9975 -1.42109e-014 4.33218 -0.130491 -10.7678 -7.10543e-015 -6.00359 13.8545 -7.95139e-016 0 -0 
0 0 0 0 0 -0 -33.4644 93.22 -108.785 8.63842 1.87122 13.1989 7.10543e-015 7.57377 0 -2.38304 0.782049 12.3279 -7.10543e-015 21.6353 1.42109e-014 -3.53606 -0.201321 12.3054 7.10543e-015 21.5464 1.95876 -28.1864 17.0034 -2.60286 -7.10543e-015 12.9308 -1.84726 1.12063 5.12113 -2.80245 3.70822 19.5981 -0.368577 7.67552 16.8094 1.27282 11.1726 1.42109e-014 0 -57.5602 -5.48332 18.7431 28.6421 -2.84217e-014 0 13.3806 -17.2027 -13.6096 23.9346 0 0 32.9481 -16.5577 -3.14372 -3.63664 19.5981 -0.368577 -11.5643 -4.48709 2.90449 -11.1726 0 -1.42109e-014 26.0971 25.423 46.0063 -28.6421 -1.42109e-014 0 -48.601 -29.0444 40.3521 -23.9346 2.84217e-014 0 -35.1656 -11.6383 1.68229 9.2363 0 0 -4.05407 -42.4296 1.93005 1.77636e-015 -40.7061 -1.42109e-014 0.384764 50.7615 18.1588 7.10543e-015 -40.9975 -1.42109e-014 -3.53111 21.5689 -23.5063 0 -6.00359 13.8545 7.95139e-016 -3.18055e-015 -3.18055e-015 -9.2363 0 0 -9.81912 5.83654 -8.27843 0 -40.7061 0 3.74621 12.7035 -1.28866 0 -40.9975 1.42109e-014 4.39313 -0.827626 -10.6851 0 -6.00359 13.8545 -7.95139e-016 -9.54166e-015 3.18055e-015 
0 0 0 0 0 -0 -33.4244 93.0915 -108.501 8.61782 1.83852 13.4353 0 7.57377 0 -2.3321 0.76697 12.3112 7.10543e-015 21.6353 -1.42109e-014 -3.5195 -0.071521 12.2933 0 21.5464 1.95876 -28.3192 17.1154 -2.63429 7.10543e-015 12.9308 -1.84726 1.20271 5.05344 -2.85814 3.70822 19.5981 -0.368577 7.68105 16.6734 1.29995 11.1726 0 0 -57.25 -5.53898 18.7083 28.6421 0 0 13.5835 -17.4594 -13.8116 23.9346 0 0 32.8319 -16.7381 -3.04839 -3.63664 19.5981 -0.368577 -11.5068 -4.57836 3.00373 -11.1726 2.84217e-014 -1.42109e-014 25.7712 25.4215 45.845 -28.6421 1.42109e-014 0 -49.54 -29.8537 40.5274 -23.9346 0 0 -34.9361 -11.9895 1.54467 9.2363 0 0 -4.29498 -42.3543 1.72253 0 -40.7061 -1.42109e-014 0.551804 49.9819 17.8721 0 -40.9975 0 -3.56543 22.1805 -23.1528 -3.55271e-015 -6.00359 13.8545 -1.59028e-015 0 1.59028e-015 -9.2363 -1.42109e-014 0 -9.72826 6.08968 -8.4281 0 -40.7061 0 3.77391 12.673 -1.50071 -7.10543e-015 -40.9975 0 4.54733 -1.47654 -10.5 0 -6.00359 13.8545 1.76556e-031 -6.36111e-015 1.59028e-015 
0 0 0 0 0 -0 -33.3918 92.9449 -108.216 8.56075 1.83935 13.6674 0 7.57377 0 -2.25679 0.765494 12.3285 0 21.6353 0 -3.54852 -0.060094 12.3115 0 21.5464 1.95876 -28.3785 17.2093 -2.72162 0 12.9308 -1.84726 1.27613 5.13918 -2.96911 3.70822 19.5981 -0.368577 7.81526 16.6511 1.22548 11.1726 -1.42109e-014 0 -57.0214 -5.61742 18.6153 28.6421 0 2.84217e-014 13.7904 -17.7626 -13.9996 23.9346 0 -1.42109e-014 32.8409 -16.968 -2.94805 -3.63664 19.5981 -0.368577 -11.3714 -4.383 3.09149 -11.1726 0 0 25.7291 24.7704 45.4966 -28.6421 0 0 -49.8066 -30.4667 41.5146 -23.9346 -2.84217e-014 -7.10543e-015 -35.0355 -12.0002 1.42498 9.2363 0 1.42109e-014 -4.48154 -42.3172 1.57818 1.77636e-015 -40.7061 -7.10543e-015 0.730013 49.1774 17.6959 0 -40.9975 0 -3.39971 22.7068 -23.0966 0 -6.00359 13.8545 -0 -3.18055e-015 -0 -9.2363 0 0 -9.60162 6.30471 -8.48586 7.10543e-015 -40.7061 0 3.81601 12.6181 -1.84812 0 -40.9975 -1.42109e-014 4.69621 -2.21753 -10.1401 0 -6.00359 13.8545 0 0 -1.59028e-015 
0 0 0 0 0 -0 -33.3656 92.7785 -107.939 8.50678 1.85116 13.9291 -3.55271e-015 7.57377 -1.42109e-014 -2.20311 0.753189 12.3003 -3.55271e-015 21.6353 0 -3.50673 -0.013399 12.2854 7.10543e-015 21.5464 1.95876 -28.469 17.2929 -2.72627 2.13163e-014 12.9308 -1.84726 1.26219 5.12454 -2.99918 3.70822 19.5981 -0.368577 7.8661 16.4273 1.23363 11.1726 -1.42109e-014 -2.84217e-014 -56.7588 -5.54803 18.6559 28.6421 2.84217e-014 0 13.9373 -18.0276 -14.179 23.9346 0 0 32.8892 -17.2079 -2.98762 -3.63664 19.5981 -0.368577 -11.4304 -4.55102 3.11647 -11.1726 2.84217e-014 0 25.7933 24.5568 45.1927 -28.6421 -2.84217e-014 0 -50.1911 -31.051 42.3026 -23.9346 2.84217e-014 7.10543e-015 -34.9581 -11.9956 1.22437 9.2363 -1.42109e-014 -1.42109e-014 -4.69589 -42.3117 1.35258 0 -40.7061 1.42109e-014 0.854778 48.4317 17.7652 0 -40.9975 0 -3.3721 23.4379 -23.0849 -1.77636e-015 -6.00359 13.8545 -0 0 1.59028e-015 -9.2363 -1.42109e-014 -1.42109e-014 -9.46344 6.50075 -8.67568 0 -40.7061 0 3.79856 12.589 -2.01404 0 -40.9975 0 4.54981 -2.89409 -9.74443 0 -6.00359 13.8545 -7.95139e-016 3.18055e-015 -0 
0 0 0 0 0 -0 -33.3319 92.5993 -107.652 8.45549 1.82846 14.1876 0 7.57377 0 -2.11023 0.756338 12.2939 3.55271e-015 21.6353 0 -3.55049 0.039936 12.2811 -7.10543e-015 21.5464 1.95876 -28.538 17.3647 -2.8148 0 12.9308 -1.84726 1.36334 5.23045 -3.10328 3.70822 19.5981 -0.368577 7.92808 16.2968 1.20256 11.1726 2.84217e-014 0 -56.4005 -5.64699 18.6253 28.6421 2.84217e-014 -2.84217e-014 14.0575 -18.2617 -14.4021 23.9346 0 0 32.9502 -17.384 -2.91844 -3.63664 19.5981 -0.368577 -11.2701 -4.31231 3.23814 -11.1726 -2.84217e-014 0 25.5417 24.0432 44.9941 -28.6421 -1.42109e-014 0 -50.7606 -31.7641 42.8728 -23.9346 -2.84217e-014 -7.10543e-015 -34.6908 -12.1829 1.09687 9.2363 -1.42109e-014 -1.42109e-014 -4.90419 -42.2626 1.17601 3.55271e-015 -40.7061 -7.10543e-015 1.02621 47.6445 17.8393 0 -40.9975 0 -3.2342 24.1303 -23.2849 -1.77636e-015 -6.00359 13.8545 -2.38542e-015 3.18055e-015 1.59028e-015 -9.2363 0 0 -9.32227 6.74393 -8.77231 7.10543e-015 -40.7061 -1.42109e-014 3.78881 12.5412 -2.09302 0 -40.9975 0 4.32821 -3.52096 -9.41156 7.10543e-015 -6.00359 13.8545 -3.97569e-016 -6.36111e-015 -0 
0 0 0 0 0 -0 -33.2992 92.4079 -107.373 8.41154 1.84289 14.4429 0 7.57377 0 -2.11289 0.747263 12.2868 0 21.6353 0 -3.40902 0.058844 12.2747 1.42109e-014 21.5464 1.95876 -28.7051 17.4853 -2.84662 0 12.9308 -1.84726 1.41762 5.19462 -3.16623 3.70822 19.5981 -0.368577 7.89598 16.2449 1.1456 11.1726 1.42109e-014 0 -56.108 -5.69345 18.5403 28.6421 0 -2.84217e-014 14.1982 -18.5741 -14.5838 23.9346 2.84217e-014 0 33.1536 -17.5993 -2.68973 -3.63664 19.5981 -0.368577 -11.365 -4.37669 3.24709 -11.1726 -2.84217e-014 -1.42109e-014 25.5186 23.8496 44.7356 -28.6421 -2.84217e-014 7.10543e-015 -51.3074 -32.4279 43.494 -23.9346 2.84217e-014 -7.10543e-015 -34.5106 -12.2922 0.972352 9.2363 0 1.42109e-014 -5.12237 -42.244 0.998279 -3.55271e-015 -40.7061 0 1.17319 46.8636 17.7769 0 -40.9975 0 -3.22284 24.8045 -23.2477 1.77636e-015 -6.00359 13.8545 1.76556e-031 6.36111e-015 -1.59028e-015 -9.2363 1.42109e-014 0 -9.20667 6.94016 -8.92506 1.42109e-014 -40.7061 -1.42109e-014 3.77689 12.5115 -2.05254 7.10543e-015 -40.9975 0 3.96075 -4.10194 -9.14082 0 -6.00359 13.8545 0 0 -1.59028e-015 
0 0 0 0 0 -0 -33.2624 92.201 -107.091 8.36573 1.8502 14.7056 -3.55271e-015 7.57377 -1.42109e-014 -2.06764 0.741592 12.2678 3.55271e-015 21.6353 0 -3.36343 0.061542 12.2562 7.10543e-015 21.5464 1.95876 -28.7754 17.6082 -2.88677 7.10543e-015 12.9308 -1.84726 1.42097 5.20968 -3.24311 3.70822 19.5981 -0.368577 7.92051 16.0905 1.1227 11.1726 0 0 -55.7923 -5.66169 18.5321 28.6421 0 0 14.2693 -18.8803 -14.789 23.9346 0 -1.42109e-014 33.6123 -17.8371 -2.5239 -3.63664 19.5981 -0.368577 -11.3321 -4.26042 3.33864 -11.1726 2.84217e-014 0 25.4213 23.4363 44.4746 -28.6421 0 -7.10543e-015 -51.7366 -33.0983 44.1897 -23.9346 2.84217e-014 0 -34.6882 -12.4035 0.785476 9.2363 2.84217e-014 0 -5.34865 -42.2216 0.811164 7.10543e-015 -40.7061 0 1.3373 46.1065 17.5419 0 -40.9975 1.42109e-014 -3.08137 25.2727 -23.158 0 -6.00359 13.8545 -1.76556e-031 -6.36111e-015 -1.59028e-015 -9.2363 1.42109e-014 0 -9.08123 7.14265 -9.05644 0 -40.7061 0 3.75051 12.4814 -2.04994 -7.10543e-015 -40.9975 -1.42109e-014 4.03044 -4.63903 -8.81715 -7.10543e-015 -6.00359 13.8545 -3.97569e-016 -1.59028e-015 -1.59028e-015 
